<mxfile host="app.diagrams.net" agent="Mozilla/5.0 (Windows NT 10.0; Win64; x64) AppleWebKit/537.36 (KHTML, like Gecko) Chrome/127.0.0.0 Safari/537.36" version="24.7.7">
  <diagram name="Page-1" id="RYCjcGIQNTWOIQQ9NclM">
    <mxGraphModel dx="1477" dy="637" grid="0" gridSize="10" guides="1" tooltips="1" connect="1" arrows="1" fold="1" page="1" pageScale="1" pageWidth="850" pageHeight="1100" math="0" shadow="0">
      <root>
        <mxCell id="0" />
        <mxCell id="1" parent="0" />
        <mxCell id="DMn9seFF3Jz7Iei5e1ks-1" value="" style="group" vertex="1" connectable="0" parent="1">
          <mxGeometry x="152" y="203" width="575" height="608" as="geometry" />
        </mxCell>
        <mxCell id="5Sapgg05dPMr0Ldm-NUC-3" style="edgeStyle=orthogonalEdgeStyle;rounded=0;orthogonalLoop=1;jettySize=auto;html=1;" parent="DMn9seFF3Jz7Iei5e1ks-1" source="5Sapgg05dPMr0Ldm-NUC-1" target="5Sapgg05dPMr0Ldm-NUC-2" edge="1">
          <mxGeometry relative="1" as="geometry" />
        </mxCell>
        <mxCell id="5Sapgg05dPMr0Ldm-NUC-1" value="" style="sketch=0;aspect=fixed;pointerEvents=1;shadow=0;dashed=0;html=1;strokeColor=none;labelPosition=center;verticalLabelPosition=bottom;verticalAlign=top;align=center;fillColor=#00188D;shape=mxgraph.azure.laptop" parent="DMn9seFF3Jz7Iei5e1ks-1" vertex="1">
          <mxGeometry y="15" width="133.33" height="80" as="geometry" />
        </mxCell>
        <mxCell id="5Sapgg05dPMr0Ldm-NUC-2" value="" style="image;html=1;image=img/lib/clip_art/computers/Server_Rack_128x128.png" parent="DMn9seFF3Jz7Iei5e1ks-1" vertex="1">
          <mxGeometry x="460" width="110" height="110" as="geometry" />
        </mxCell>
        <mxCell id="5Sapgg05dPMr0Ldm-NUC-4" value="&lt;b&gt;Laptop&lt;/b&gt;" style="text;html=1;align=center;verticalAlign=middle;resizable=0;points=[];autosize=1;strokeColor=none;fillColor=none;" parent="DMn9seFF3Jz7Iei5e1ks-1" vertex="1">
          <mxGeometry x="40" y="108" width="60" height="30" as="geometry" />
        </mxCell>
        <mxCell id="5Sapgg05dPMr0Ldm-NUC-5" value="&lt;b&gt;Facebook Server&lt;/b&gt;" style="text;html=1;align=center;verticalAlign=middle;resizable=0;points=[];autosize=1;strokeColor=none;fillColor=none;" parent="DMn9seFF3Jz7Iei5e1ks-1" vertex="1">
          <mxGeometry x="455" y="118" width="120" height="30" as="geometry" />
        </mxCell>
        <mxCell id="5Sapgg05dPMr0Ldm-NUC-6" value="" style="sketch=0;aspect=fixed;pointerEvents=1;shadow=0;dashed=0;html=1;strokeColor=none;labelPosition=center;verticalLabelPosition=bottom;verticalAlign=top;align=center;fillColor=#00188D;shape=mxgraph.azure.laptop" parent="DMn9seFF3Jz7Iei5e1ks-1" vertex="1">
          <mxGeometry y="240" width="133.33" height="80" as="geometry" />
        </mxCell>
        <mxCell id="5Sapgg05dPMr0Ldm-NUC-7" value="" style="html=1;verticalLabelPosition=bottom;align=center;labelBackgroundColor=#ffffff;verticalAlign=top;strokeWidth=2;strokeColor=#0080F0;shadow=0;dashed=0;shape=mxgraph.ios7.icons.smartphone;" parent="DMn9seFF3Jz7Iei5e1ks-1" vertex="1">
          <mxGeometry x="330" y="230" width="90" height="130" as="geometry" />
        </mxCell>
        <mxCell id="5Sapgg05dPMr0Ldm-NUC-8" style="edgeStyle=orthogonalEdgeStyle;rounded=0;orthogonalLoop=1;jettySize=auto;html=1;entryX=-0.018;entryY=0.375;entryDx=0;entryDy=0;entryPerimeter=0;" parent="DMn9seFF3Jz7Iei5e1ks-1" source="5Sapgg05dPMr0Ldm-NUC-6" target="5Sapgg05dPMr0Ldm-NUC-7" edge="1">
          <mxGeometry relative="1" as="geometry" />
        </mxCell>
        <mxCell id="5Sapgg05dPMr0Ldm-NUC-9" value="" style="image;html=1;image=img/lib/clip_art/general/Full_Folder_128x128.png" parent="DMn9seFF3Jz7Iei5e1ks-1" vertex="1">
          <mxGeometry x="345" y="260" width="45" height="50" as="geometry" />
        </mxCell>
        <mxCell id="5Sapgg05dPMr0Ldm-NUC-10" value="&lt;b&gt;Mobile&lt;/b&gt;" style="text;html=1;align=center;verticalAlign=middle;resizable=0;points=[];autosize=1;strokeColor=none;fillColor=none;" parent="DMn9seFF3Jz7Iei5e1ks-1" vertex="1">
          <mxGeometry x="345" y="380" width="60" height="30" as="geometry" />
        </mxCell>
        <mxCell id="5Sapgg05dPMr0Ldm-NUC-11" value="&lt;b&gt;Laptop&lt;/b&gt;" style="text;html=1;align=center;verticalAlign=middle;resizable=0;points=[];autosize=1;strokeColor=none;fillColor=none;" parent="DMn9seFF3Jz7Iei5e1ks-1" vertex="1">
          <mxGeometry x="36.66" y="338" width="60" height="30" as="geometry" />
        </mxCell>
        <mxCell id="5Sapgg05dPMr0Ldm-NUC-12" value="" style="sketch=0;aspect=fixed;pointerEvents=1;shadow=0;dashed=0;html=1;strokeColor=none;labelPosition=center;verticalLabelPosition=bottom;verticalAlign=top;align=center;fillColor=#00188D;shape=mxgraph.azure.laptop" parent="DMn9seFF3Jz7Iei5e1ks-1" vertex="1">
          <mxGeometry x="3.3400000000000034" y="450" width="133.33" height="80" as="geometry" />
        </mxCell>
        <mxCell id="5Sapgg05dPMr0Ldm-NUC-13" value="" style="html=1;verticalLabelPosition=bottom;align=center;labelBackgroundColor=#ffffff;verticalAlign=top;strokeWidth=2;strokeColor=#0080F0;shadow=0;dashed=0;shape=mxgraph.ios7.icons.smartphone;" parent="DMn9seFF3Jz7Iei5e1ks-1" vertex="1">
          <mxGeometry x="305" y="425" width="90" height="130" as="geometry" />
        </mxCell>
        <mxCell id="5Sapgg05dPMr0Ldm-NUC-14" style="edgeStyle=orthogonalEdgeStyle;rounded=0;orthogonalLoop=1;jettySize=auto;html=1;entryX=0.92;entryY=0.5;entryDx=0;entryDy=0;entryPerimeter=0;" parent="DMn9seFF3Jz7Iei5e1ks-1" source="5Sapgg05dPMr0Ldm-NUC-13" target="5Sapgg05dPMr0Ldm-NUC-12" edge="1">
          <mxGeometry relative="1" as="geometry" />
        </mxCell>
        <mxCell id="5Sapgg05dPMr0Ldm-NUC-15" value="&lt;b&gt;Laptop&lt;/b&gt;" style="text;html=1;align=center;verticalAlign=middle;resizable=0;points=[];autosize=1;strokeColor=none;fillColor=none;" parent="DMn9seFF3Jz7Iei5e1ks-1" vertex="1">
          <mxGeometry x="40" y="540" width="60" height="30" as="geometry" />
        </mxCell>
        <mxCell id="5Sapgg05dPMr0Ldm-NUC-17" value="&lt;b&gt;Mobile&lt;/b&gt;" style="text;html=1;align=center;verticalAlign=middle;resizable=0;points=[];autosize=1;strokeColor=none;fillColor=none;" parent="DMn9seFF3Jz7Iei5e1ks-1" vertex="1">
          <mxGeometry x="330" y="578" width="60" height="30" as="geometry" />
        </mxCell>
        <mxCell id="5Sapgg05dPMr0Ldm-NUC-18" value="" style="image;html=1;image=img/lib/clip_art/general/Full_Folder_128x128.png" parent="DMn9seFF3Jz7Iei5e1ks-1" vertex="1">
          <mxGeometry x="40" y="460" width="45" height="50" as="geometry" />
        </mxCell>
      </root>
    </mxGraphModel>
  </diagram>
</mxfile>
